<?xml version="1.0" encoding="utf-8"?>
<svg viewBox="0 0 36.548752 27.590553" width="36.549" height="27.591" xmlns="http://www.w3.org/2000/svg">
  <g id="layer1" transform="matrix(1.353163003922, -0.028133999556, 0.030250003561, 1.454836010933, 2.777379029883, 4.251446766238)" style="transform-origin: 15.3427px 9.0159px;">
    <g id="g4250">
      <path id="path4254" style="stroke:#000000;stroke-width:2;fill:none" d="m10.433 1.2205 17.184 9.9213v2.126l-6.1372 3.5433-6.1372-3.5433-3.0686 1.7717-9.2058-5.315v-2.126l1.2274-0.70866v-2.126z" transform="translate(1.355e-8 .0000010165)"/>
      <g id="g3146" transform="translate(-7.9314 -13.281)">
        <path id="path4151-1-8" style="fill-rule:evenodd;fill:#078d13" d="m4.296 4.7638v2.126l1.8412 1.063v-2.126z" transform="translate(7.9314 13.281)"/>
        <path id="path4155" style="fill-rule:evenodd;fill:#2ec02a" d="m3.0686 7.5984 3.0686-1.7716-1.8412-1.063c2.0458-1.1811 4.0915-2.3622 6.137-3.5433l17.184 9.9213-6.1372 3.5433-6.1372-3.5433-3.0686 1.7717z" transform="translate(7.9314 13.281)"/>
        <path id="path4151" style="fill-rule:evenodd;fill:#078d13" d="m3.0686 7.5984v2.126l9.2058 5.315v-2.126z" transform="translate(7.9314 13.281)"/>
        <path id="path4153-5" style="fill-rule:evenodd;fill:#35ff46" d="m12.274 12.913 3.0686-1.7717v2.126l-3.0686 1.7717z" transform="translate(7.9314 13.281)"/>
        <path id="path4151-1" style="fill-rule:evenodd;fill:#078d13" d="m15.343 11.142v2.126l6.1372 3.5433v-2.126z" transform="translate(7.9314 13.281)"/>
        <path id="path4153" style="fill-rule:evenodd;fill:#35ff46" d="m21.48 14.685 6.1372-3.5433v2.126l-6.1372 3.5433z" transform="translate(7.9314 13.281)"/>
      </g>
      <g id="g3099">
        <path id="path3951" style="fill:#ffe900" d="m4.296 8.3071 1.8412-1.063 0.6137 0.3543-1.8411 1.063z"/>
        <path id="path3951-2" style="fill:#ffe900" d="m5.5235 9.0157 1.8411-1.0629 0.6137 0.3543-1.8411 1.063z"/>
        <path id="path3951-8" style="fill:#ffe900" d="m6.7509 9.7244 1.8412-1.063 0.6137 0.3543-1.8412 1.0633z"/>
        <path id="path3951-7" style="fill:#ffe900" d="m7.9783 10.433 1.8412-1.0629 0.6135 0.3543-1.8409 1.0626z"/>
        <path id="path3951-4" style="fill:#ffe900" d="m9.2058 11.142 1.8412-1.063 0.61372 0.35433-1.8412 1.063z"/>
        <path id="path3951-1" style="fill:#ffe900" d="m10.433 11.85 1.8412-1.063 0.61372 0.35433-1.8412 1.063z"/>
        <path id="path3999" style="fill:#b6820e" d="m4.296 8.3071 0.61372 0.35433v2.126l-0.61372-0.35433z"/>
        <path id="path3999-6" style="fill:#b6820e" d="m5.5235 9.0157 0.61372 0.35433v2.126l-0.61372-0.35433z"/>
        <path id="path3999-0" style="fill:#b6820e" d="m6.7509 9.7244 0.61372 0.35433v2.126l-0.61372-0.35433z"/>
        <path id="path3999-1" style="fill:#b6820e" d="m7.9783 10.433 0.61372 0.35433v2.126l-0.61372-0.35433z"/>
        <path id="path3999-1-7" style="fill:#b6820e" d="m9.2058 11.142 0.61372 0.35433v2.126l-0.61372-0.35433z"/>
        <path id="path3999-1-1" style="fill:#b6820e" d="m10.433 11.85 0.61372 0.35433v2.126l-0.61372-0.35433z"/>
      </g>
      <path id="path4058-5" d="m20.253 11.142 2.4549 1.4173-1.2274 0.70866-2.4549-1.4173z" style="fill:#000000"/>
      <g id="g3130" transform="translate(-.61372 -1.063)">
        <path id="path4058-6" style="fill:#000000" d="m12.274 4.4094 4.296 2.4804-3.682 2.1259-4.2959-2.4803z"/>
        <path id="path4058" style="fill:#4f4f4f" d="m12.274 3.7008 4.296 2.4803-3.682 2.126-4.2959-2.4803z"/>
        <path id="path4121-7" style="stroke-linejoin:round;stroke:#7df7d5;stroke-linecap:round;stroke-width:.5;fill:#7df7d5" d="m12.888 8.3071 0.61372 0.35433v0.70866"/>
        <path id="path4121-26" style="stroke-linejoin:round;stroke:#7df7d5;stroke-linecap:round;stroke-width:.5;fill:none" d="m12.274 7.9528-0.61372 0.35433v0.70866"/>
        <path id="path4121-26-1" style="stroke-linejoin:round;stroke:#7df7d5;stroke-linecap:round;stroke-width:.5;fill:none" d="m11.661 7.5984-0.61372 0.35433v0.70866"/>
        <path id="path4121-26-4" style="stroke-linejoin:round;stroke:#7df7d5;stroke-linecap:round;stroke-width:.5;fill:none" d="m11.047 7.2441-0.61372 0.35433v0.70866"/>
        <path id="path4121-26-6" style="stroke-linejoin:round;stroke:#7df7d5;stroke-linecap:round;stroke-width:.5;fill:none" d="m10.433 6.8898-0.61372 0.35433v0.70866"/>
        <path id="path4121-26-21" style="stroke-linejoin:round;stroke:#7df7d5;stroke-linecap:round;stroke-width:.5;fill:none" d="m9.8195 6.5354-0.61372 0.35433v0.70866"/>
        <path id="path4121-26-8" style="stroke-linejoin:round;stroke:#7df7d5;stroke-linecap:round;stroke-width:.5;fill:none" d="m9.2058 6.1811-0.61372 0.35433v0.70866"/>
        <path id="path4121-7-2" style="stroke-linejoin:round;stroke:#7df7d5;stroke-linecap:round;stroke-width:.5;fill:#7df7d5" d="m13.502 7.9528 0.61372 0.35433v0.70866"/>
        <path id="path4121-7-8" style="stroke-linejoin:round;stroke:#7df7d5;stroke-linecap:round;stroke-width:.5;fill:#7df7d5" d="m14.116 7.5984 0.61372 0.35433v0.70866"/>
        <path id="path4121-7-3" style="stroke-linejoin:round;stroke:#7df7d5;stroke-linecap:round;stroke-width:.5;fill:#7df7d5" d="m14.729 7.2441 0.61372 0.35433v0.70866"/>
        <path id="path4121-7-35" style="stroke-linejoin:round;stroke:#7df7d5;stroke-linecap:round;stroke-width:.5;fill:#7df7d5" d="m15.343 6.8898 0.61372 0.35433v0.70866"/>
        <path id="path4121-7-37" style="stroke-linejoin:round;stroke:#7df7d5;stroke-linecap:round;stroke-width:.5;fill:#7df7d5" d="m15.957 6.5354 0.61372 0.35433v0.70866"/>
      </g>
      <path id="path4058-5-6" d="m22.708 9.7244 2.454 1.4176-1.227 0.708-2.455-1.417z" style="fill:#000000"/>
      <path id="path4058-5-4" d="m16.57 9.0157 2.455 1.4173-1.227 0.709-2.455-1.4176z" style="fill:#000000"/>
    </g>
  </g>
</svg>